<svg xmlns="http://www.w3.org/2000/svg" width="22.738" height="32" viewBox="0 0 22.738 32">
  <g id="Icon_-_Power" data-name="Icon - Power" transform="translate(-16883.295 -4596)">
    <path id="Path_11373" data-name="Path 11373" d="M749.033,10.931V9.253a.356.356,0,0,0-.208-.324L741.009,5.37a.346.346,0,0,0-.147-.032h-.193L740.5,3.875a.355.355,0,0,0-.062-.164L737.955.152a.355.355,0,0,0-.582,0l-2.487,3.559a.359.359,0,0,0-.062.164l-.164,1.463h-.193a.351.351,0,0,0-.147.032L726.5,8.929a.356.356,0,0,0-.208.324v1.679h.711V9.609h7.177l-.434,3.85-7.246,3.3a.356.356,0,0,0-.208.324v1.678h.711V17.439h6.3l-.249,2.225-4.717,11.822a.356.356,0,0,0,.2.462.35.35,0,0,0,.132.025.36.36,0,0,0,.139-.028l8.839-3.776,8.892,3.8a.355.355,0,0,0,.466-.187.358.358,0,0,0,0-.272l-4.731-11.848-.249-2.225h6.3v1.322h.711V17.083a.356.356,0,0,0-.208-.324l-7.246-3.3-.433-3.85h7.176v1.322ZM735.52,4.044,737.661.98a0,0,0,0,1,0,0h0l2.141,3.064.145,1.294h-4.578ZM735.3,6.05h4.737l.32,2.847h-5.377Zm-.4,3.559h5.536l.4,3.559H734.5Zm-6.59-.712c-.009,0-.009,0,0-.007l6.237-2.841h.035l-.32,2.847Zm0,7.83c-.009,0-.009,0,0-.007h0l5.35-2.437-.274,2.443Zm5.217,3.676,3.257,1.466L732.1,23.978Zm-4.2,10.549s-.006,0,0,0l2.16-5.416s0,0,.007.005l5.256,2.246Zm14.525-5.439,2.18,5.459s0,.007,0,0l-7.47-3.193,5.26-2.247a.355.355,0,0,0,.036-.024m-.268-.668.01.025a.335.335,0,0,0-.056.012L737.645,27.4l-5.881-2.515-.025,0,.011-.027a.375.375,0,0,0,.052.008.358.358,0,0,0,.146-.032l5.7-2.566,5.7,2.566a.332.332,0,0,0,.23.019m3.445-8.125c.008,0,.007.007,0,.007h-5.076l-.274-2.443ZM741.8,20.39,743.241,24l-4.725-2.127Zm-.235-.674-3.918,1.762-3.887-1.75.257-2.29h7.292Zm-.335-2.99H734.1l.314-2.786.132-.061h6.241l.133.061Zm5.791-7.83h-5.954l-.319-2.847h.035l6.238,2.841c.008,0,.007.007,0,.007" transform="translate(16157 4596)"/>
  </g>
</svg>
