<svg xmlns="http://www.w3.org/2000/svg" xmlns:xlink="http://www.w3.org/1999/xlink" width="32" height="30.302" viewBox="0 0 32 30.302">
  <defs>
    <clipPath id="clip-path">
      <rect id="Rectangle_6424" data-name="Rectangle 6424" width="32" height="30.302" transform="translate(0 0)" fill="none"/>
    </clipPath>
  </defs>
  <g id="Icon_-_Renewables" data-name="Icon - Renewables" transform="translate(0 0)">
    <g id="Group_17469" data-name="Group 17469" transform="translate(0 0)" clip-path="url(#clip-path)">
      <path id="Path_11390" data-name="Path 11390" d="M16,30.3a16.018,16.018,0,0,0,16-16v-.361h-.361a15.95,15.95,0,0,0-14.818,9.969l-.461,1.13V13.858l.215-.022a5.5,5.5,0,0,0,4.937-5.482V3.079H18.936V0h-.722V3.079H13.785V0h-.722V3.079H10.487V8.354a5.5,5.5,0,0,0,4.938,5.482l.214.022v11.2l-.461-1.133A15.941,15.941,0,0,0,.361,13.944H0V14.3a16.015,16.015,0,0,0,16,16m.373-.983A15.355,15.355,0,0,1,31.017,14.678l.259-.01-.01.259A15.355,15.355,0,0,1,16.619,29.568l-.259.011ZM11.208,8.354V3.8H20.79V8.354a4.791,4.791,0,0,1-9.582,0M.723,14.668l.259.01A15.344,15.344,0,0,1,15.624,29.319l.01.259-.259-.01A15.344,15.344,0,0,1,.734,14.927Z" transform="translate(0 0)"/>
    </g>
  </g>
</svg>
