<svg xmlns="http://www.w3.org/2000/svg" width="29.734" height="33" viewBox="0 0 29.734 33">
  <g id="Icon_-_Life_sciences" data-name="Icon - Life sciences" transform="translate(-16157.75 -4998.266)">
    <path id="Path_11374" data-name="Path 11374" d="M11.808,434a6.926,6.926,0,0,1-3.026.693H8.246a7.016,7.016,0,0,1-7-7V409.762a7.016,7.016,0,0,1,7-7h.537a7.016,7.016,0,0,1,7,7v4.556" transform="translate(16157 4596)" fill="none" stroke="#231f20" stroke-miterlimit="10" stroke-width="1"/>
    <line id="Line_444" data-name="Line 444" y1="0.001" x2="9.14" transform="translate(16158.457 5014.727)" fill="none" stroke="#231f20" stroke-miterlimit="10" stroke-width="1"/>
    <path id="Path_11375" data-name="Path 11375" d="M46.672,447.528a9.237,9.237,0,1,1-9.237-9.237A9.236,9.236,0,0,1,46.672,447.528Z" transform="translate(16140.313 4574.002)" fill="none" stroke="#231f20" stroke-miterlimit="10" stroke-width="1"/>
    <line id="Line_445" data-name="Line 445" x1="11.048" y2="14.408" transform="translate(16172.225 5014.326)" fill="none" stroke="#231f20" stroke-miterlimit="10" stroke-width="1"/>
  </g>
</svg>
