<svg id="Icon_-_Oil_and_Gas" data-name="Icon - Oil and Gas" xmlns="http://www.w3.org/2000/svg" xmlns:xlink="http://www.w3.org/1999/xlink" width="32" height="31.876" viewBox="0 0 32 31.876">
  <defs>
    <clipPath id="clip-path">
      <rect id="Rectangle_6401" data-name="Rectangle 6401" width="32" height="31.876" fill="none"/>
    </clipPath>
  </defs>
  <g id="Group_17442" data-name="Group 17442" transform="translate(0 0)" clip-path="url(#clip-path)">
    <path id="Path_11386" data-name="Path 11386" d="M31.773,29.983a16.642,16.642,0,0,0-3.057-.888V26.24h1.539V23.483H28.715V22.126H26.832v-1.8H25.154v1.8h-4.1l-.344-2.853h1.062v-.721H20.623L20.159,14.7h1.057v-.721H20.072l-.464-3.849h1.077V9.411H19.521l-.464-3.849h1.077V4.841H18.969l-.333-2.763h.971V0H12.393V2.078h.97L13.03,4.841H11.867v.721h1.076l-.465,3.849H11.315v.721H12.39l-.465,3.849h-1.1V14.7h1.014l-.465,3.849H10.191v.721h1.1l-.337,2.789.723.065.344-2.853h7.967l.344,2.853h-2.96V20.617H14.633v1.509H6.846v-1.8H5.168v1.8H3.285v1.357H1.745V26.24H3.285V30.8a15.8,15.8,0,0,1-2.79-.821.361.361,0,0,0-.267.67,17.927,17.927,0,0,0,6.745,1.223,46.843,46.843,0,0,0,9.1-1.2c5.074-1.012,10.321-2.059,15.435-.019a.361.361,0,1,0,.267-.67M13.114.721h5.771v.635H13.114Zm5.129,4.12H13.757l.333-2.763h3.82Zm-4.573.721h4.66l.464,3.849H13.206Zm-.551,4.57h5.762l.464,3.849H12.655ZM12.1,18.552l.464-3.849h6.865l.464,3.849Zm13.772,2.5h.235v1.079h-.235Zm-10.522.291h1.292V22H15.354Zm-9.465-.291h.235v1.079H5.889Zm-1.883,1.8H27.994v.635H4.006Zm-1.54,2.671V24.2H29.534v1.314H2.466Zm4.289,3.714v1.913a19.284,19.284,0,0,1-2.749-.218V26.24H7.82a4.722,4.722,0,0,0-1.065,2.993m8.885.79a47.343,47.343,0,0,1-8.163,1.121V29.232A4,4,0,0,1,8.823,26.24h5.81v1.378h1.007Zm-.286-3.783h1.292V26.9H15.354Zm1.007,3.639V27.618h1.007V26.24h5.81a4.015,4.015,0,0,1,1.315,2.531,47.374,47.374,0,0,0-8.132,1.108m11.633-.9a20,20,0,0,0-2.775-.209,4.742,4.742,0,0,0-1.04-2.527h3.815Z" transform="translate(0 0)"/>
  </g>
</svg>
