<svg xmlns="http://www.w3.org/2000/svg" xmlns:xlink="http://www.w3.org/1999/xlink" width="32" height="31.966" viewBox="0 0 32 31.966">
  <defs>
    <clipPath id="clip-path">
      <rect id="Rectangle_6425" data-name="Rectangle 6425" width="32" height="31.967" fill="none"/>
    </clipPath>
  </defs>
  <g id="Icon_-_Hydrogen" data-name="Icon - Hydrogen" transform="translate(0 0)">
    <g id="Group_17471" data-name="Group 17471" transform="translate(0 0)" clip-path="url(#clip-path)">
      <path id="Path_11391" data-name="Path 11391" d="M25.812,0a6.178,6.178,0,0,0-4.621,10.289l-2.332,2.332a11.195,11.195,0,1,0,.519.521l2.333-2.333A6.184,6.184,0,1,0,25.812,0M21.654,20.771A10.459,10.459,0,1,1,11.2,10.312,10.471,10.471,0,0,1,21.654,20.771m4.158-9.131a5.452,5.452,0,1,1,5.452-5.452,5.458,5.458,0,0,1-5.452,5.452" transform="translate(0 0)"/>
      <path id="Path_11392" data-name="Path 11392" d="M23.227,49.883H26.7v-2.7h1.039v6.436H26.7V50.867H23.227v2.749H22.189V47.18h1.039Z" transform="translate(-14.026 -29.823)"/>
      <path id="Path_11393" data-name="Path 11393" d="M40.125,63.537a1.125,1.125,0,0,1,.958-.5.921.921,0,0,1,1,.965,1.229,1.229,0,0,1-.4.841l-.753.806H42.16v.442H40.239v-.365l1.085-1.154A.832.832,0,0,0,41.591,64a.491.491,0,0,0-.521-.519.739.739,0,0,0-.613.332Z" transform="translate(-25.364 -39.846)"/>
    </g>
  </g>
</svg>
