<svg id="Icon_-_Chemicals" data-name="Icon - Chemicals" xmlns="http://www.w3.org/2000/svg" xmlns:xlink="http://www.w3.org/1999/xlink" width="29.012" height="32" viewBox="0 0 29.012 32">
  <defs>
    <clipPath id="clip-path">
      <rect id="Rectangle_6426" data-name="Rectangle 6426" width="29.012" height="32" fill="none"/>
    </clipPath>
  </defs>
  <g id="Group_17473" data-name="Group 17473" clip-path="url(#clip-path)">
    <path id="Path_11394" data-name="Path 11394" d="M.6,29.773A4.409,4.409,0,0,0,4.462,32H24.55a4.455,4.455,0,0,0,3.858-6.683L18.915,8.871l-.044-.077V.8h2.608V0h-3.4V9.007l9.644,16.708A3.659,3.659,0,0,1,24.55,31.2H4.462a3.659,3.659,0,0,1-3.169-5.49L10.941,9.007V0h-3.4V.8h2.608v8l-.044.077L.6,25.317a4.414,4.414,0,0,0,0,4.456" transform="translate(0)"/>
    <path id="Path_11395" data-name="Path 11395" d="M31.378,33.916a4.193,4.193,0,1,0,4.193,4.193,4.2,4.2,0,0,0-4.193-4.193m0,7.591a3.4,3.4,0,1,1,3.4-3.4,3.4,3.4,0,0,1-3.4,3.4" transform="translate(-16.872 -21.05)"/>
    <path id="Path_11396" data-name="Path 11396" d="M49.706,62.181h2.371v-.8H49.706l.563-.563,1.113-1.114-.563-.562L49.707,60.26l-.563.564V58.452h-.8v2.371l-.563-.564-1.113-1.113-.563.562,1.113,1.114.563.563H45.415v.8h2.371l-.563.563-1.113,1.114.563.562,1.113-1.113.563-.563v2.371h.8V62.744l.563.563,1.113,1.114.563-.562L50.27,62.745Z" transform="translate(-28.187 -36.278)"/>
    <path id="Path_11397" data-name="Path 11397" d="M19.842,65.986A1.962,1.962,0,1,1,21.8,64.024a1.964,1.964,0,0,1-1.962,1.962m0-3.166a1.2,1.2,0,1,0,1.2,1.2,1.2,1.2,0,0,0-1.2-1.2" transform="translate(-11.097 -38.519)"/>
  </g>
</svg>
