<svg id="Icon_-_linked" data-name="Icon - linked" xmlns="http://www.w3.org/2000/svg" width="18" height="18" viewBox="0 0 18 18">
  <g id="Group_10864" data-name="Group 10864" transform="translate(-669.701 -854.006)">
    <path id="Path_341" data-name="Path 341" d="M989.071,522.322a3.546,3.546,0,0,0-5.044-.009l-.009.009.844.851a2.369,2.369,0,0,1,3.371,0,2.417,2.417,0,0,1,0,3.4l-4.756,4.8a2.368,2.368,0,0,1-3.368-.034,2.415,2.415,0,0,1,0-3.359l.838-.851-.838-.851-.844.851a3.623,3.623,0,0,0,.044,5.092,3.551,3.551,0,0,0,5.021-.015l4.756-4.8A3.618,3.618,0,0,0,989.071,522.322Z" transform="translate(-302.419 335.069)" fill="#fff"/>
    <path id="Path_342" data-name="Path 342" d="M970.087,534.363a2.412,2.412,0,0,1-.008-3.391l.008-.008,4.756-4.8a2.364,2.364,0,0,1,3.363-.008l.008.008a2.373,2.373,0,0,1,.678,1.708,2.408,2.408,0,0,1-.7,1.708l-1.26,1.289.844.851,1.26-1.271a3.628,3.628,0,0,0,0-5.1,3.557,3.557,0,0,0-5.059,0l-4.756,4.8a3.591,3.591,0,0,0-.052,5.049,3.527,3.527,0,0,0,2.584,1.072,3.6,3.6,0,0,0,2.544-1.055l-.844-.851a2.365,2.365,0,0,1-3.363.008Z" transform="translate(-298.461 333.84)" fill="#fff"/>
  </g>
  <rect id="Rectangle_1655" data-name="Rectangle 1655" width="18" height="18" transform="translate(0)" fill="none"/>
</svg>
