<svg xmlns="http://www.w3.org/2000/svg" xmlns:xlink="http://www.w3.org/1999/xlink" width="31.205" height="30.875" viewBox="0 0 31.205 30.875">
  <defs>
    <clipPath id="clip-path">
      <rect id="Rectangle_6399" data-name="Rectangle 6399" width="31.205" height="30.876" fill="none"/>
    </clipPath>
  </defs>
  <g id="Icon_-_Carbon_capture" data-name="Icon - Carbon capture" transform="translate(0 0)">
    <rect id="Rectangle_6398" data-name="Rectangle 6398" width="31.205" height="0.893" transform="translate(0 29.983)"/>
    <g id="Group_17438" data-name="Group 17438" transform="translate(0 0)">
      <g id="Group_17437" data-name="Group 17437" clip-path="url(#clip-path)">
        <path id="Path_11383" data-name="Path 11383" d="M31.2.9V.011H23.214V0h-.892V14.63a5.934,5.934,0,1,1-2.855,0V0h-.892v.01H0V.9H18.576V3.758H0v.892H18.576v6.6H0v.892H18.576v1.829a6.843,6.843,0,0,0-4.3,4.773H0v.892H14.115a6.586,6.586,0,0,0,.292,2.855H0v.892H14.774a6.811,6.811,0,0,0,12.242,0H31.2v-.892H27.383a6.79,6.79,0,0,0,.338-2.109,6.859,6.859,0,0,0-.045-.746H31.2v-.892H27.516a6.843,6.843,0,0,0-4.3-4.773V12.143H31.2v-.892H23.214v-6.6H31.2V3.758H23.214V.9Z" transform="translate(0 -0.001)"/>
        <path id="Path_11384" data-name="Path 11384" d="M36.718,39.184A1.879,1.879,0,1,0,38.6,37.305a1.881,1.881,0,0,0-1.879,1.879m2.866,0A.987.987,0,1,1,38.6,38.2a.988.988,0,0,1,.987.987" transform="translate(-20.344 -20.67)"/>
        <path id="Path_11385" data-name="Path 11385" d="M47.175,48.842a2.748,2.748,0,1,0-2.748-2.748,2.751,2.751,0,0,0,2.748,2.748m0-4.6a1.856,1.856,0,1,1-1.856,1.856,1.859,1.859,0,0,1,1.856-1.856" transform="translate(-24.616 -24.016)"/>
      </g>
    </g>
  </g>
</svg>
